<svg xmlns="http://www.w3.org/2000/svg" width="18" height="18" viewBox="0 0 18 18">
  <path id="Path_717" data-name="Path 717" d="M8.966,18h0Zm.064,0h0Zm-.091,0h0Zm.12,0h0Zm-.146,0h0Zm.175,0h0Zm.029,0h0Zm-.239,0h0Zm.267,0h0Zm-.3,0h0Zm.325,0h0Zm-.351,0h0ZM8.79,18h0ZM9.2,18h0Zm-.442,0h0Zm.471,0h0Zm.029,0h0Zm-.526,0h0ZM8.71,18h0Zm.58,0h0Zm.029,0h0Zm-.646,0h0Zm-.026,0h0Zm.7,0h0Zm-.727,0h0Zm.755,0h0Zm-.792,0h0Zm.821,0h0Zm-.847,0h0Zm.876,0h0Zm-.9,0h0Zm.93,0h0Zm.029,0h0Zm-.982,0h0Zm1.01,0h0Zm-1.049,0h0Zm-.025,0h0Zm1.1,0h0Zm-1.128,0h0Zm1.157,0h0Zm.029,0h0Zm-1.222,0h0Zm-.025,0h0Zm1.276,0h0Zm-1.3,0h0Zm1.329,0h0Zm-1.364,0h0Zm1.392,0h0Zm.029,0h0Zm-1.447,0h0Zm-.026,0h0Zm1.5,0h0Zm-1.529,0h0Zm1.558,0Zm.029,0h0Zm-1.616,0h0Zm-.026,0h0Zm1.671,0h0Zm-2.24-.071a9,9,0,1,1,2.813,0V11.6h2.1L12.9,9h-2.5V7.312a1.3,1.3,0,0,1,1.466-1.406h1.135V3.691a13.862,13.862,0,0,0-2.015-.175,3.176,3.176,0,0,0-3.4,3.5V9H5.309v2.6H7.594Z" fill="#e17800" fill-rule="evenodd"/>
</svg>
