<svg xmlns="http://www.w3.org/2000/svg" width="18" height="18" viewBox="0 0 18 18">
  <path id="Path_720" data-name="Path 720" d="M9,0A9,9,0,1,1,0,9,9,9,0,0,1,9,0ZM9,3.375c-1.528,0-1.719.006-2.319.034a4.137,4.137,0,0,0-1.365.262A2.872,2.872,0,0,0,3.67,5.316a4.137,4.137,0,0,0-.262,1.365c-.028.6-.034.791-.034,2.319s.006,1.719.034,2.319a4.137,4.137,0,0,0,.262,1.365A2.872,2.872,0,0,0,5.316,14.33a4.137,4.137,0,0,0,1.365.262c.6.028.791.034,2.319.034s1.719-.006,2.319-.034a4.137,4.137,0,0,0,1.365-.262,2.872,2.872,0,0,0,1.645-1.645,4.137,4.137,0,0,0,.262-1.365c.028-.6.034-.791.034-2.319s-.006-1.719-.034-2.319a4.137,4.137,0,0,0-.262-1.365A2.872,2.872,0,0,0,12.684,3.67a4.137,4.137,0,0,0-1.365-.262C10.719,3.381,10.528,3.375,9,3.375ZM9,4.389c1.5,0,1.68.006,2.273.033a3.138,3.138,0,0,1,1.045.194,1.866,1.866,0,0,1,1.068,1.068,3.138,3.138,0,0,1,.193,1.045c.027.593.033.771.033,2.273s-.006,1.68-.033,2.273a3.138,3.138,0,0,1-.193,1.045,1.871,1.871,0,0,1-1.068,1.068,3.138,3.138,0,0,1-1.045.193c-.593.027-.771.033-2.273.033s-1.68-.006-2.273-.033a3.138,3.138,0,0,1-1.045-.193,1.866,1.866,0,0,1-1.068-1.068,3.138,3.138,0,0,1-.194-1.045C4.394,10.68,4.389,10.5,4.389,9s.006-1.68.033-2.273a3.138,3.138,0,0,1,.194-1.045A1.866,1.866,0,0,1,5.682,4.615a3.138,3.138,0,0,1,1.045-.194C7.32,4.394,7.5,4.389,9,4.389ZM9,6.112A2.888,2.888,0,1,0,11.888,9,2.888,2.888,0,0,0,9,6.112Zm0,4.763A1.875,1.875,0,1,1,10.875,9,1.875,1.875,0,0,1,9,10.875ZM12.678,6A.675.675,0,1,1,12,5.322.675.675,0,0,1,12.678,6Z" fill="#e17800" fill-rule="evenodd"/>
</svg>
