<svg xmlns="http://www.w3.org/2000/svg" width="18" height="18" viewBox="0 0 18 18">
  <path id="Path_723" data-name="Path 723" d="M9,0A9,9,0,1,1,0,9,9,9,0,0,1,9,0Zm5.254,13.743v-.177l-.822-.807a.246.246,0,0,1-.093-.236V6.591a.246.246,0,0,1,.093-.236l.842-.807V5.37H11.359L9.281,10.554,6.917,5.37H3.859v.177l.985,1.186a.407.407,0,0,1,.133.345V11.74a.536.536,0,0,1-.142.462L3.727,13.546v.177H6.868v-.177L5.76,12.2a.555.555,0,0,1-.152-.462V7.709l2.757,6.015h.32l2.368-6.015V12.5c0,.128,0,.152-.084.236l-.852.827v.177Z" fill="#e17800" fill-rule="evenodd"/>
</svg>
