<svg xmlns="http://www.w3.org/2000/svg" width="18" height="18" viewBox="0 0 18 18">
  <path id="Path_721" data-name="Path 721" d="M9,0A9,9,0,0,0,5.72,17.383,8.643,8.643,0,0,1,5.752,14.8c.163-.7,1.055-4.474,1.055-4.474a3.245,3.245,0,0,1-.269-1.336c0-1.252.726-2.186,1.628-2.186A1.131,1.131,0,0,1,9.3,8.071a18.128,18.128,0,0,1-.745,3,1.307,1.307,0,0,0,1.333,1.627c1.6,0,2.829-1.687,2.829-4.121a3.553,3.553,0,0,0-3.76-3.662A3.9,3.9,0,0,0,4.9,8.817a3.5,3.5,0,0,0,.669,2.054.269.269,0,0,1,.062.258c-.068.285-.22.9-.25,1.021-.039.165-.13.2-.3.12A4.036,4.036,0,0,1,3.252,8.783c0-2.839,2.063-5.446,5.947-5.446a5.282,5.282,0,0,1,5.549,5.2c0,3.1-1.956,5.6-4.67,5.6A2.41,2.41,0,0,1,8.014,13.1s-.451,1.718-.561,2.139A10.046,10.046,0,0,1,6.335,17.6,9,9,0,1,0,9,0Z" fill="#e17800"/>
</svg>
