<svg xmlns="http://www.w3.org/2000/svg" width="18" height="18" viewBox="0 0 18 18">
  <path id="Path_718" data-name="Path 718" d="M9,0A9,9,0,1,1,0,9,9,9,0,0,1,9,0ZM7.415,13.787a6.119,6.119,0,0,0,6.16-6.161c0-.094,0-.188,0-.278a4.425,4.425,0,0,0,1.082-1.122,4.4,4.4,0,0,1-1.244.341,2.164,2.164,0,0,0,.952-1.2,4.373,4.373,0,0,1-1.374.525A2.166,2.166,0,0,0,9.242,7.375a1.976,1.976,0,0,0,.058.494A6.14,6.14,0,0,1,4.838,5.606a2.164,2.164,0,0,0,.673,2.887,2.131,2.131,0,0,1-.979-.269v.027A2.167,2.167,0,0,0,6.27,10.374a2.15,2.15,0,0,1-.57.076,2.066,2.066,0,0,1-.409-.04,2.162,2.162,0,0,0,2.021,1.5,4.351,4.351,0,0,1-2.689.925,3.929,3.929,0,0,1-.516-.031A6.035,6.035,0,0,0,7.415,13.787Z" fill="#e17800" fill-rule="evenodd"/>
</svg>
