<svg xmlns="http://www.w3.org/2000/svg" width="18" height="18" viewBox="0 0 18 18">
  <path id="Path_722" data-name="Path 722" d="M9,0A9,9,0,1,1,0,9,9,9,0,0,1,9,0Zm5.035,7.236q-.07,1.54-2.151,4.217-2.151,2.794-3.639,2.8-.922,0-1.56-1.7-.425-1.56-.851-3.121-.473-1.7-1.016-1.7a3.257,3.257,0,0,0-.828.5l-.5-.639q.781-.686,1.539-1.372A3.484,3.484,0,0,1,6.6,5.26q1.231-.119,1.515,1.683.307,1.943.426,2.417.355,1.612.781,1.612.331,0,.994-1.046a4.111,4.111,0,0,0,.71-1.592q.1-.9-.71-.9a1.981,1.981,0,0,0-.781.173q.778-2.546,2.971-2.475Q14.129,5.176,14.035,7.236Z" fill="#e17800" fill-rule="evenodd"/>
</svg>
